<?xml version="1.0" encoding="UTF-8"?>
<svg version="1.1" xmlns="http://www.w3.org/2000/svg" width="400" height="86">
<path d="M0 0 C8.29698384 6.1573605 14.58976861 12.78271477 17 23 C18.2015914 33.82490933 17.56083935 43.54925681 11.15234375 52.61328125 C5.13064467 59.99013584 -2.03768509 64.0125617 -11 67 C-22.5976602 68.08100694 -32.21369012 66.19356428 -41.375 58.75 C-48.94198472 51.52983541 -53.20602561 43.36975828 -53.9609375 32.96875 C-54.07606771 24.21885425 -51.7960531 17.25292692 -47 10 C-46.4225 9.113125 -45.845 8.22625 -45.25 7.3125 C-33.48091473 -4.78350431 -15.03144599 -8.44108228 0 0 Z M-38.375 14.3125 C-43.51077482 20.93194311 -44.93708348 27.72028977 -44 36 C-42.56916942 42.88795188 -39.84396095 48.17445898 -34.0390625 52.44140625 C-26.80521919 57.16088395 -20.59088579 57.60732483 -12 57 C-5.53143223 55.63536859 -0.22370019 52.35959029 3.4453125 46.81640625 C7.23587144 40.2208337 8.85744291 34.63362365 8 27 C5.80031687 19.05005824 2.08678568 12.83382806 -4.8125 8.125 C-16.26803942 2.21493946 -29.79311022 5.23069431 -38.375 14.3125 Z " fill="#FE7042" transform="translate(86,15)"/>
<path d="M0 0 C4.98361503 2.97892778 8.32942782 6.49783137 10.890625 11.7421875 C12.10492329 17.59289742 11.68226565 23.47948743 8.953125 28.8671875 C5.58592202 33.38632834 1.93320365 36.26966128 -3.421875 38.0546875 C-10.68716529 38.99560214 -15.65954965 38.2359951 -21.54296875 33.7734375 C-26.29829965 29.42344666 -28.18214761 25.17114351 -28.671875 18.8046875 C-28.24954571 12.46974815 -26.82902767 7.9525464 -21.984375 3.6796875 C-15.56178006 -1.46413574 -7.90679979 -3.0862025 0 0 Z M-16.421875 11.0546875 C-18.98758089 14.47562869 -18.85895554 17.90242234 -18.421875 22.0546875 C-16.62625095 24.80797771 -15.36932578 26.58096211 -12.421875 28.0546875 C-6.60841553 28.58834263 -6.60841553 28.58834263 -1.484375 26.1796875 C1.13010055 23.48598542 1.51868639 22.56982215 1.953125 18.8046875 C1.45885204 13.86195792 0.03984199 12.51640449 -3.421875 9.0546875 C-8.18551781 6.6728661 -12.39288623 7.92102957 -16.421875 11.0546875 Z " fill="#FE7042" transform="translate(76.421875,27.9453125)"/>
<path d="M0 0 C0.99 0 1.98 0 3 0 C5.66666667 0 8.33333333 0 11 0 C11.07468157 4.00178342 11.12885021 8.00329167 11.16479492 12.00561523 C11.17979409 13.36441117 11.20020038 14.72315941 11.22631836 16.08178711 C11.48676127 29.98739592 11.48676127 29.98739592 8 36 C7.34 36 6.68 36 6 36 C6 36.66 6 37.32 6 38 C1.22734209 40.54541755 -3.72727574 40.70639368 -9 40 C-11.53820615 38.93865936 -12.9106781 37.86939328 -15 36 C-15 35.34 -15 34.68 -15 34 C-15.66 34 -16.32 34 -17 34 C-17 33.01 -17 32.02 -17 31 C-14.79112053 29.65889461 -13.54530581 28.93390233 -10.9375 29.25 C-9 30 -9 30 -6 32 C-3.5 32.58333333 -3.5 32.58333333 -1 32 C0.8624438 29.59141286 0.8624438 29.59141286 2 27 C1.01 27.33 0.02 27.66 -1 28 C-6.00168163 28.48093093 -9.32480069 27.93911731 -13.48828125 25.25390625 C-16.62396113 22.65299348 -17.7425284 19.79264602 -18.3125 15.82421875 C-18.60391789 10.40566733 -17.68788777 7.18625099 -14 3 C-9.65230307 -0.72659737 -5.41866169 -0.27397728 0 0 Z M-9 10 C-10.14121708 13.35232517 -10.38081215 15.09557116 -9 18.375 C-6.96550596 20.30441529 -6.96550596 20.30441529 -3.5 20.5625 C0.089071 20.35765493 0.089071 20.35765493 2 17.8125 C3.15776971 14.55627269 3.34070461 13.18417346 2 10 C-2.80985408 6.51285579 -4.21021246 6.40765934 -9 10 Z " fill="#202020" transform="translate(288,33)"/>
<path d="M0 0 C3.66666667 0 7.33333333 0 11 0 C12.258125 -0.061875 13.51625 -0.12375 14.8125 -0.1875 C18.64535471 -0.20844456 20.88519148 0.66389361 24 3 C24.495 2.505 24.99 2.01 25.5 1.5 C29.01209776 -0.60725866 31.99693522 -0.47773201 36 0 C39.4203866 1.17013226 39.91540482 1.87310723 42 5 C43.10386579 9.77177429 43.15157583 14.44469326 43.125 19.3125 C43.13080078 20.40401367 43.13080078 20.40401367 43.13671875 21.51757812 C43.12673611 26.87326389 43.12673611 26.87326389 42 28 C39.66702567 28.04092937 37.33294775 28.04241723 35 28 C34.93941406 26.79601562 34.87882812 25.59203125 34.81640625 24.3515625 C34.73200268 22.77602923 34.64735459 21.20050904 34.5625 19.625 C34.52318359 18.8309375 34.48386719 18.036875 34.44335938 17.21875 C34.31106596 12.97398779 34.31106596 12.97398779 33 9 C31.02 9 29.04 9 27 9 C26.90912109 10.93166016 26.90912109 10.93166016 26.81640625 12.90234375 C26.73201753 14.58074159 26.6473687 16.25912636 26.5625 17.9375 C26.52318359 18.78763672 26.48386719 19.63777344 26.44335938 20.51367188 C26.40146484 21.32255859 26.35957031 22.13144531 26.31640625 22.96484375 C26.27974854 23.7137085 26.24309082 24.46257324 26.20532227 25.23413086 C26 27 26 27 25 28 C22.66702567 28.04092937 20.33294775 28.04241723 18 28 C17.93941406 26.87980469 17.87882812 25.75960937 17.81640625 24.60546875 C17.73198576 23.13280016 17.64733851 21.66014456 17.5625 20.1875 C17.52318359 19.44951172 17.48386719 18.71152344 17.44335938 17.95117188 C17.25618965 14.76928658 17.01279207 12.03837622 16 9 C13.03 8.505 13.03 8.505 10 8 C9.97494385 8.57032959 9.9498877 9.14065918 9.92407227 9.72827148 C9.80843451 12.29826157 9.68556376 14.86785527 9.5625 17.4375 C9.52318359 18.33533203 9.48386719 19.23316406 9.44335938 20.15820312 C9.40146484 21.01220703 9.35957031 21.86621094 9.31640625 22.74609375 C9.26141968 23.93223267 9.26141968 23.93223267 9.20532227 25.14233398 C9 27 9 27 8 28 C4.5 28.125 4.5 28.125 1 28 C0 27 0 27 -0.11352539 24.40795898 C-0.10828857 23.28204346 -0.10305176 22.15612793 -0.09765625 20.99609375 C-0.09443359 19.78115234 -0.09121094 18.56621094 -0.08789062 17.31445312 C-0.07951172 16.03505859 -0.07113281 14.75566406 -0.0625 13.4375 C-0.05798828 12.15423828 -0.05347656 10.87097656 -0.04882812 9.54882812 C-0.03699545 6.36583978 -0.02051068 3.18294238 0 0 Z " fill="#202020" transform="translate(332,33)"/>
<path d="M0 0 C0.99 0 1.98 0 3 0 C5.66666667 0 8.33333333 0 11 0 C11.02886338 4.47915328 11.04675187 8.95828291 11.0625 13.4375 C11.07087891 14.71689453 11.07925781 15.99628906 11.08789062 17.31445312 C11.09272461 19.13686523 11.09272461 19.13686523 11.09765625 20.99609375 C11.10551147 22.68496704 11.10551147 22.68496704 11.11352539 24.40795898 C11 27 11 27 10 28 C7.66702567 28.04092937 5.33294775 28.04241723 3 28 C3 27.34 3 26.68 3 26 C2.505 26.33 2.01 26.66 1.5 27 C-2.02397903 28.40959161 -5.2917308 28.57160219 -9 28 C-12.65910484 26.20496744 -14.54823878 24.64752442 -16.875 21.3125 C-18.31893989 17.0608992 -18.71653219 13.44249957 -18 9 C-13.78114966 0.56229932 -8.70045092 -0.43991044 0 0 Z M-9 9 C-10.39935013 11.79870027 -10.25265405 13.90498792 -10 17 C-9 19 -9 19 -7 20 C-2.92205575 20.42478586 -1.46923881 20.31282587 2 18 C3.0140792 14.66802549 3.41959084 12.86249229 1.875 9.6875 C-1.70994057 6.46105348 -5.04220109 6.31435074 -9 9 Z " fill="#212121" transform="translate(255,33)"/>
<path d="M0 0 C3.5 0.125 3.5 0.125 4.5 1.125 C4.77070899 4.76453196 4.94645517 8.39743524 5.10546875 12.04296875 C4.92699095 15.89973093 4.92699095 15.89973093 6.5 19.125 C9 19.29166667 9 19.29166667 11.5 19.125 C13.01421001 17.61078999 12.71309856 16.20027232 12.81640625 14.08984375 C12.85830078 13.28095703 12.90019531 12.47207031 12.94335938 11.63867188 C12.98267578 10.78853516 13.02199219 9.93839844 13.0625 9.0625 C13.10568359 8.20849609 13.14886719 7.35449219 13.19335938 6.47460938 C13.29976702 4.35827963 13.40041731 2.24166187 13.5 0.125 C16.47 0.125 19.44 0.125 22.5 0.125 C22.52891949 4.41665262 22.54677118 8.70828036 22.5625 13 C22.57087891 14.22332031 22.57925781 15.44664063 22.58789062 16.70703125 C22.59272461 18.45693359 22.59272461 18.45693359 22.59765625 20.2421875 C22.60551147 21.86036377 22.60551147 21.86036377 22.61352539 23.51123047 C22.5 26.125 22.5 26.125 21.5 28.125 C14.75 28.25 14.75 28.25 12.5 27.125 C11.84 27.455 11.18 27.785 10.5 28.125 C6.07135399 28.48800377 3.57579317 28.6862834 -0.375 26.625 C-6.15452764 19.82555571 -4.95695096 9.55202591 -4.5 1.125 C-3.5 0.125 -3.5 0.125 0 0 Z " fill="#1D1D1D" transform="translate(210.5,32.875)"/>
<path d="M0 0 C2.97 0 5.94 0 9 0 C9.64995297 1.41478135 10.29478722 2.83191487 10.9375 4.25 C11.29714844 5.03890625 11.65679687 5.8278125 12.02734375 6.640625 C12.90033279 8.75823698 13.51338508 10.76669362 14 13 C14.66 13 15.32 13 16 13 C16.19335938 12.39671875 16.38671875 11.7934375 16.5859375 11.171875 C16.84632813 10.37265625 17.10671875 9.5734375 17.375 8.75 C17.75785156 7.56664062 17.75785156 7.56664062 18.1484375 6.359375 C18.95173667 4.13372042 19.89711662 2.09068328 21 0 C23.64 0 26.28 0 29 0 C28.27817618 5.115534 26.25038084 9.68819508 24.3125 14.4375 C23.95599365 15.31897705 23.5994873 16.2004541 23.23217773 17.10864258 C14.57786697 38.42213303 14.57786697 38.42213303 13 40 C10.32941149 40.14115161 7.67567762 40.04247107 5 40 C5.47576668 36.85993993 6.2358916 34.48103847 7.5625 31.5625 C9.84053707 25.91692988 9.31621208 22.38871498 7.03125 16.85546875 C6.19849216 14.96127512 5.35439086 13.0720348 4.5 11.1875 C3.65503545 9.28569541 2.81121947 7.38337994 1.96875 5.48046875 C1.59169922 4.64410889 1.21464844 3.80774902 0.82617188 2.94604492 C0 1 0 1 0 0 Z " fill="#202020" transform="translate(301,33)"/>
<path d="M0 0 C2.64 0 5.28 0 8 0 C9.98 4.62 11.96 9.24 14 14 C15.98 9.38 17.96 4.76 20 0 C22.97 0 25.94 0 29 0 C25.53913399 9.6707887 21.84747839 18.92387024 17 28 C15.02 28 13.04 28 11 28 C0 4.8258427 0 4.8258427 0 0 Z " fill="#202020" transform="translate(121,33)"/>
<path d="M0 0 C2.64 0 5.28 0 8 0 C8 2.97 8 5.94 8 9 C9.98 9 11.96 9 14 9 C14 11.31 14 13.62 14 16 C12.02 16 10.04 16 8 16 C8 22.93 8 29.86 8 37 C5.36 37 2.72 37 0 37 C0 30.07 0 23.14 0 16 C-1.32 16 -2.64 16 -4 16 C-4 13.69 -4 11.38 -4 9 C-2.68 9 -1.36 9 0 9 C0 6.03 0 3.06 0 0 Z " fill="#202020" transform="translate(190,24)"/>
<path d="M0 0 C6.33333333 0 12.66666667 0 19 0 C18.67 2.64 18.34 5.28 18 8 C15.36 8 12.72 8 10 8 C8.89210465 12.05308333 8.66268733 16.07111374 8.4375 20.25 C8.39431641 20.99507812 8.35113281 21.74015625 8.30664062 22.5078125 C8.20103275 24.338349 8.10005799 26.16915176 8 28 C5.36 28 2.72 28 0 28 C0 18.76 0 9.52 0 0 Z " fill="#212121" transform="translate(166,33)"/>
<path d="M0 0 C2.64 0 5.28 0 8 0 C8 9.24 8 18.48 8 28 C5.36 28 2.72 28 0 28 C0 18.76 0 9.52 0 0 Z " fill="#202020" transform="translate(152,33)"/>
<path d="M0 0 C3.125 0.375 3.125 0.375 6 1 C7.32841008 6.43440487 7.32841008 6.43440487 5.875 8.9375 C4 10 4 10 1.4375 9.8125 C-1 9 -1 9 -3 7 C-2.67028521 3.70285207 -2.3773161 2.3773161 0 0 Z " fill="#1F1F1F" transform="translate(154,20)"/>
</svg>
