<?xml version="1.0" encoding="UTF-8"?>
<svg version="1.1" xmlns="http://www.w3.org/2000/svg" width="640" height="360">
<path d="M0 0 C5.69597694 4.04230622 9.81777588 8.09423534 11.49609375 15.05859375 C12.64610175 21.89936296 11.40746027 27.52525256 7.44921875 33.23828125 C2.77193343 38.91117497 -1.53217414 41.78758915 -8.875 42.875 C-17.04930681 43.47641296 -23.43101487 39.92772406 -29.55859375 34.66015625 C-33.45602102 30.1712495 -34.31581491 23.5664058 -33.9375 17.8125 C-32.76197629 9.97567528 -29.04606648 5.4200243 -23.01171875 0.4453125 C-15.88953318 -4.67159752 -7.44397528 -4.01918057 0 0 Z M-20 5.5 C-24.16203161 8.96835967 -26.54337325 12.10181799 -27.3828125 17.4296875 C-27.65838014 23.47380435 -26.66078281 27.18318052 -23 32 C-19.35385984 35.46827967 -16.46163303 36.29195462 -11.5625 36.5 C-6.18888198 36.27366555 -3.21728412 35.35661389 1 32 C2.95396761 29.66090254 3.79569917 27.91039366 5 25 C4.76716851 21.85078091 4.76716851 21.85078091 4 19 C4.3403125 18.0409375 4.3403125 18.0409375 4.6875 17.0625 C5.14066583 14.07160555 3.85719664 12.16835253 2.296875 9.68359375 C0.19230957 6.95146213 -1.91632596 5.51160492 -5 4 C-8.75129837 3.66475124 -8.75129837 3.66475124 -12 4 C-11.67 4.99 -11.34 5.98 -11 7 C-9.26545309 7.7200006 -7.529864 8.43779545 -5.78515625 9.1328125 C-2.9066375 10.53113014 -1.61045022 12.2746227 0 15 C1.14282994 19.19037645 1.32815753 21.22435493 -0.375 25.25 C-0.91125 26.1575 -1.4475 27.065 -2 28 C-2.33 28.99 -2.66 29.98 -3 31 C-14.44619003 33.02091486 -14.44619003 33.02091486 -18.1640625 30.578125 C-20.82742371 27.40308356 -22.83963045 24.41125203 -23.3125 20.25 C-22.80954048 15.019221 -19.79411194 11.46418916 -16 8 C-15.1646875 7.1646875 -15.1646875 7.1646875 -14.3125 6.3125 C-13.6628125 5.6628125 -13.6628125 5.6628125 -13 5 C-16.03944027 3.59718142 -16.94394092 3.97197046 -20 5.5 Z M-15.875 15.125 C-17.52854531 17.88090884 -17.39365568 19.85075452 -17 23 C-16 25 -16 25 -14 26 C-10.85075452 26.39365568 -8.88090884 26.52854531 -6.125 24.875 C-4.47145469 22.11909116 -4.60634432 20.14924548 -5 17 C-6 15 -6 15 -8 14 C-11.14924548 13.60634432 -13.11909116 13.47145469 -15.875 15.125 Z " fill="#F9FAFA" transform="translate(245,160)"/>
<path d="M0 0 C2.26566343 -0.43941523 2.26566343 -0.43941523 4 -1 C6.01033194 1.01033194 5.23043059 4.88039014 5.25 7.625 C5.270625 8.32496094 5.29125 9.02492187 5.3125 9.74609375 C5.35069132 14.8923743 4.45196687 18.45125772 2 23 C-1.7373856 25.4915904 -3.57331583 25.45793285 -8 25 C-10.9375 23.125 -10.9375 23.125 -13 21 C-13 20.34 -13 19.68 -13 19 C-11.34385343 18.61781233 -9.67542976 18.28604898 -8 18 C-7.67 18.33 -7.34 18.66 -7 19 C-5.33382885 19.04063832 -3.66611905 19.042721 -2 19 C-2 18.34 -2 17.68 -2 17 C-3.60875 17.12375 -3.60875 17.12375 -5.25 17.25 C-9 17 -9 17 -11.375 15.4375 C-13.53538251 12.19692624 -13.93187446 9.88315597 -14 6 C-12.78392788 3.11982918 -11.69696456 1.54761501 -9.25 -0.375 C-6.0198943 -1.27225158 -3.28002496 -0.52714687 0 0 Z M-7.6875 5.5 C-8.120625 5.995 -8.55375 6.49 -9 7 C-8.34 8.65 -7.68 10.3 -7 12 C-5.33388095 12.042721 -3.66617115 12.04063832 -2 12 C-0.72996677 10.94689723 -0.72996677 10.94689723 -0.8125 8.5625 C-0.73160017 5.83265325 -0.73160017 5.83265325 -3 4 C-6.00259517 3.66781808 -6.00259517 3.66781808 -7.6875 5.5 Z " fill="#FBFCFB" transform="translate(376,172)"/>
<path d="M0 0 C3.74459778 0.01783142 6.28665735 0.76141773 9.75 2.1875 C10.74 1.5275 11.73 0.8675 12.75 0.1875 C15.75 0.1875 15.75 0.1875 18.75 1.1875 C22.43279738 5.9751366 22.31803549 11.3869837 21.75 17.1875 C21.42 17.5175 21.09 17.8475 20.75 18.1875 C19.1 18.1875 17.45 18.1875 15.75 18.1875 C15.42 14.2275 15.09 10.2675 14.75 6.1875 C13.43 6.1875 12.11 6.1875 10.75 6.1875 C10.935625 7.05375 11.12125 7.92 11.3125 8.8125 C11.75667933 12.23902628 11.46954492 14.82962371 10.75 18.1875 C9.1 18.1875 7.45 18.1875 5.75 18.1875 C4.8531286 15.4968858 4.47140874 13.29852904 4.1875 10.5 C4.10371094 9.69175781 4.01992188 8.88351563 3.93359375 8.05078125 C3.87300781 7.43589844 3.81242187 6.82101563 3.75 6.1875 C2.76 6.5175 1.77 6.8475 0.75 7.1875 C0.42 10.8175 0.09 14.4475 -0.25 18.1875 C-1.9 18.1875 -3.55 18.1875 -5.25 18.1875 C-6.79116258 15.10517485 -6.12369068 11.97299832 -5.875 8.625 C-5.83117187 7.92697266 -5.78734375 7.22894531 -5.7421875 6.50976562 C-5.29063584 0.04379665 -5.29063584 0.04379665 0 0 Z " fill="#FBFCFC" transform="translate(407.25,170.8125)"/>
<path d="M0 0 C1.98 0 3.96 0 6 0 C6 1.65 6 3.3 6 5 C6.99 5.33 7.98 5.66 9 6 C9 7.32 9 8.64 9 10 C8.01 10 7.02 10 6 10 C6 14.29 6 18.58 6 23 C4.02 23 2.04 23 0 23 C0 18.71 0 14.42 0 10 C-2.64 10.33 -5.28 10.66 -8 11 C-8.66 14.96 -9.32 18.92 -10 23 C-11.65 23 -13.3 23 -15 23 C-15 17.39 -15 11.78 -15 6 C-13.02 6 -11.04 6 -9 6 C-8.13375 5.814375 -7.2675 5.62875 -6.375 5.4375 C-3.86668989 4.97544287 -2.39404861 5.2019838 0 6 C0 4.02 0 2.04 0 0 Z " fill="#FBFCFC" transform="translate(311,166)"/>
<path d="M0 0 C0.77085937 -0.00257813 1.54171875 -0.00515625 2.3359375 -0.0078125 C4.625 0.125 4.625 0.125 8.625 1.125 C8.625 6.405 8.625 11.685 8.625 17.125 C3.03941998 18.242116 -2.42068209 19.23286922 -7.875 17.1875 C-10.32754484 13.81525084 -10.69955418 10.23601968 -10.375 6.125 C-7.5198416 1.39922059 -5.38481123 -0.01788974 0 0 Z M-3.375 5.125 C-3.375 5.785 -3.375 6.445 -3.375 7.125 C-4.035 7.125 -4.695 7.125 -5.375 7.125 C-4.99595792 10.41575996 -4.99595792 10.41575996 -3.375 13.125 C-0.875 13.29166667 -0.875 13.29166667 1.625 13.125 C2.89503323 12.07189723 2.89503323 12.07189723 2.8125 9.6875 C2.89339983 6.95765325 2.89339983 6.95765325 0.625 5.125 C-0.695 5.125 -2.015 5.125 -3.375 5.125 Z " fill="#FCFDFC" transform="translate(351.375,170.875)"/>
<path d="M0 0 C1.67542976 0.28604898 3.34385343 0.61781233 5 1 C5.12375 1.639375 5.2475 2.27875 5.375 2.9375 C5.684375 3.9584375 5.684375 3.9584375 6 5 C6.66 5.33 7.32 5.66 8 6 C8.33 6.33 8.66 6.66 9 7 C9.5878125 5.5459375 9.5878125 5.5459375 10.1875 4.0625 C12 1 12 1 14.6875 0.125 C15.8321875 0.063125 15.8321875 0.063125 17 0 C16.39038113 3.46528304 15.49835807 6.56534181 14.1875 9.828125 C13.65769531 11.15070313 13.65769531 11.15070313 13.1171875 12.5 C12.74851562 13.4075 12.37984375 14.315 12 15.25 C11.44699219 16.63445312 11.44699219 16.63445312 10.8828125 18.046875 C8.13585283 24.86414717 8.13585283 24.86414717 7 26 C5.33382885 26.04063832 3.66611905 26.042721 2 26 C2.42925781 25.17822266 2.42925781 25.17822266 2.8671875 24.33984375 C5.16090802 18.87225413 5.16462997 15.36089603 3.06494141 9.93188477 C1.77876176 6.91684205 0.42820237 3.95083134 -1 1 C-0.67 0.67 -0.34 0.34 0 0 Z " fill="#FBFCFC" transform="translate(383,171)"/>
<path d="M0 0 C1.65 0 3.3 0 5 0 C5.33 3.63 5.66 7.26 6 11 C7.32 11 8.64 11 10 11 C10.33 7.37 10.66 3.74 11 0 C12.65 0 14.3 0 16 0 C16.9016858 3.08433792 17.13468049 5.85341821 17.125 9.0625 C17.12886719 10.34833984 17.12886719 10.34833984 17.1328125 11.66015625 C17 14 17 14 16 17 C13.89646505 17.0810206 11.79204048 17.13919907 9.6875 17.1875 C8.51574219 17.22230469 7.34398437 17.25710937 6.13671875 17.29296875 C3 17 3 17 1.09375 15.9375 C-0.60916645 12.92090515 -0.28165968 10.23363509 -0.1875 6.8125 C-0.16042969 5.54019531 -0.13335937 4.26789063 -0.10546875 2.95703125 C-0.07066406 1.98121094 -0.03585937 1.00539062 0 0 Z " fill="#FBFCFB" transform="translate(322,172)"/>
<path d="M0 0 C1.65 0 3.3 0 5 0 C6.32 2.97 7.64 5.94 9 9 C10.32 6.03 11.64 3.06 13 0 C14.65 0.33 16.3 0.66 18 1 C17.21340905 3.27270745 16.4209739 5.54308004 15.625 7.8125 C15.40328125 8.45509766 15.1815625 9.09769531 14.953125 9.75976562 C13.8760115 12.81686717 12.80938139 15.28592791 11 18 C8.375 18.1875 8.375 18.1875 6 18 C4.99095625 15.7536764 3.9926398 13.50356063 3 11.25 C2.71382813 10.61578125 2.42765625 9.9815625 2.1328125 9.328125 C0.63993298 5.91582896 0 3.79218083 0 0 Z " fill="#FBFBFB" transform="translate(268,171)"/>
<path d="M0 0 C1.67542976 0.28604898 3.34385343 0.61781233 5 1 C5.02684679 3.64590014 5.04676357 6.29153096 5.0625 8.9375 C5.07087891 9.69224609 5.07925781 10.44699219 5.08789062 11.22460938 C5.09652441 13.14994313 5.05224333 15.07535581 5 17 C4 18 4 18 1.4375 18.0625 C0.633125 18.041875 -0.17125 18.02125 -1 18 C-1.02684312 15.18743719 -1.04676188 12.37512759 -1.0625 9.5625 C-1.07087891 8.76005859 -1.07925781 7.95761719 -1.08789062 7.13085938 C-1.0965143 5.08704779 -1.0522815 3.04316098 -1 1 C-0.67 0.67 -0.34 0.34 0 0 Z " fill="#F9F9F9" transform="translate(288,171)"/>
<path d="M0 0 C0.8971875 0.5259375 0.8971875 0.5259375 1.8125 1.0625 C1.4825 2.0525 1.1525 3.0425 0.8125 4.0625 C3.2875 5.0525 3.2875 5.0525 5.8125 6.0625 C4.8225 6.7225 3.8325 7.3825 2.8125 8.0625 C2.8125 7.4025 2.8125 6.7425 2.8125 6.0625 C1.45125 6.371875 1.45125 6.371875 0.0625 6.6875 C-3.29777897 7.0752245 -4.42825815 6.86661967 -7.1875 5.0625 C-6.1975 4.0725 -5.2075 3.0825 -4.1875 2.0625 C-4.5175 1.4025 -4.8475 0.7425 -5.1875 0.0625 C-2.1875 -0.9375 -2.1875 -0.9375 0 0 Z " fill="#EEF6F6" transform="translate(235.1875,162.9375)"/>
<path d="M0 0 C2.125 0.9375 2.125 0.9375 4 2 C3.67 3.32 3.34 4.64 3 6 C1.35 5.67 -0.3 5.34 -2 5 C-2 3.68 -2 2.36 -2 1 C-1.34 0.67 -0.68 0.34 0 0 Z " fill="#F9F9F9" transform="translate(289,163)"/>
<path d="M0 0 C0.66 0 1.32 0 2 0 C1.34 1.98 0.68 3.96 0 6 C-0.66 5.34 -1.32 4.68 -2 4 C-1.34 2.68 -0.68 1.36 0 0 Z " fill="#F5F7FA" transform="translate(221,171)"/>
<path d="M0 0 C0.99 0.33 1.98 0.66 3 1 C2.34 1 1.68 1 1 1 C0.67 1.99 0.34 2.98 0 4 C0 2.68 0 1.36 0 0 Z " fill="#F6FFFF" transform="translate(348,178)"/>
<path d="M0 0 C0.66 0 1.32 0 2 0 C1.67 0.99 1.34 1.98 1 3 C0.67 2.01 0.34 1.02 0 0 Z " fill="#F7F7F7" transform="translate(221,187)"/>
<path d="M0 0 C0.33 0.66 0.66 1.32 1 2 C0.01 1.67 -0.98 1.34 -2 1 C-1.34 0.67 -0.68 0.34 0 0 Z " fill="#EFFFEF" transform="translate(242,191)"/>
<path d="M0 0 C0.99 0.495 0.99 0.495 2 1 C1.01 1.495 1.01 1.495 0 2 C0 1.34 0 0.68 0 0 Z " fill="#F4F4F4" transform="translate(220,185)"/>
<path d="M0 0 C0.33 0.66 0.66 1.32 1 2 C0.34 1.67 -0.32 1.34 -1 1 C-0.67 0.67 -0.34 0.34 0 0 Z " fill="#F7F7F7" transform="translate(224,169)"/>
<path d="M0 0 C0.66 0.66 1.32 1.32 2 2 C1.34 2 0.68 2 0 2 C0 1.34 0 0.68 0 0 Z " fill="#E3EBEB" transform="translate(243,168)"/>
<path d="M0 0 C2 1 2 1 2 1 Z " fill="#FFFFFF" transform="translate(234,194)"/>
<path d="M0 0 C2 1 2 1 2 1 Z " fill="#EDEDED" transform="translate(243,190)"/>
<path d="" fill="#E8E8F3" transform="translate(0,0)"/>
<path d="" fill="#FFFFFF" transform="translate(0,0)"/>
<path d="" fill="#FFFFFF" transform="translate(0,0)"/>
<path d="" fill="#FFFFFF" transform="translate(0,0)"/>
<path d="M0 0 C2 1 2 1 2 1 Z " fill="#BFEAEA" transform="translate(237,166)"/>
<path d="" fill="#FFFFFF" transform="translate(0,0)"/>
<path d="" fill="#FFFFFF" transform="translate(0,0)"/>
<path d="" fill="#FFFFFF" transform="translate(0,0)"/>
<path d="" fill="#D5D5D5" transform="translate(0,0)"/>
<path d="" fill="#CCCCCC" transform="translate(0,0)"/>
<path d="" fill="#D5D5D5" transform="translate(0,0)"/>
<path d="" fill="#FFFFFF" transform="translate(0,0)"/>
<path d="" fill="#BFBFBF" transform="translate(0,0)"/>
<path d="" fill="#FFFFFF" transform="translate(0,0)"/>
<path d="" fill="#FFFFFF" transform="translate(0,0)"/>
<path d="" fill="#FFFFFF" transform="translate(0,0)"/>
<path d="" fill="#FFFFFF" transform="translate(0,0)"/>
<path d="" fill="#FFFFFF" transform="translate(0,0)"/>
<path d="" fill="#CCCCCC" transform="translate(0,0)"/>
<path d="" fill="#FFFFFF" transform="translate(0,0)"/>
<path d="" fill="#FFFFFF" transform="translate(0,0)"/>
<path d="" fill="#CCCCCC" transform="translate(0,0)"/>
<path d="" fill="#D8EBEB" transform="translate(0,0)"/>
<path d="" fill="#D5D5D5" transform="translate(0,0)"/>
<path d="" fill="#D5D5D5" transform="translate(0,0)"/>
<path d="" fill="#FFFFFF" transform="translate(0,0)"/>
</svg>
